<?xml version="1.0" encoding="utf-8"?>
<!-- Generator: Adobe Illustrator 22.0.1, SVG Export Plug-In . SVG Version: 6.00 Build 0)  -->
<svg version="1.1" id="Groupe_13" xmlns="http://www.w3.org/2000/svg" xmlns:xlink="http://www.w3.org/1999/xlink" x="0px" y="0px"
	 viewBox="0 0 13.5 17.8" style="enable-background:new 0 0 13.5 17.8;" xml:space="preserve">
<style type="text/css">
	.st0{fill:#6D6868;}
</style>
<path class="st0" d="M12.1,8V5.3c0-2.9-2.3-5.3-5.2-5.4c-2.9,0-5.3,2.3-5.4,5.2c0,0,0,0.1,0,0.1V8C0.6,8.2,0,9,0,9.8v6
	c0,1,0.8,1.9,1.9,1.9h9.8c1,0,1.9-0.8,1.9-1.9v-6C13.5,9,12.9,8.2,12.1,8z M8.2,13.3c-0.1,0.3-0.4,0.5-0.6,0.6h0v1.8H5.9v-1.8
	c-0.8-0.5-1.1-1.5-0.6-2.3c0.5-0.8,1.5-1.1,2.3-0.6C8.4,11.5,8.7,12.5,8.2,13.3z M4.2,8V5.3c0-1.4,1.1-2.5,2.5-2.5
	c1.4,0,2.5,1.1,2.5,2.5l0,2.7H4.2z"/>
</svg>
