<?xml version="1.0" encoding="utf-8"?>
<!-- Generator: Adobe Illustrator 22.1.0, SVG Export Plug-In . SVG Version: 6.00 Build 0)  -->
<svg version="1.1" id="Layer_1" xmlns="http://www.w3.org/2000/svg" xmlns:xlink="http://www.w3.org/1999/xlink" x="0px" y="0px"
	 viewBox="0 0 277.6 59.4" style="enable-background:new 0 0 277.6 59.4;" xml:space="preserve">
<style type="text/css">
	.st0{fill:#FFFFFF;}
</style>
<g id="Groupe_12" transform="translate(-0.001 0.003)">
	<g id="Groupe_6" transform="translate(208.085 -0.003)">
		<path id="Tracé_7" class="st0" d="M4,20.9c-0.6,0-1.1-0.1-1.6-0.1c-0.1,0-0.3,0-0.3,0.1c-0.1,0.1,0.1,0.2,0.2,0.3
			c1,1,2.4,1.6,3.9,1.6C6.7,23,7.3,23,8,23c-0.5,0.3-0.9,0.5-1.3,0.8c-0.1,0.1-0.3,0.1-0.2,0.3s0.2,0.1,0.3,0.1
			c1.3,0.1,2.6,0.1,3.9-0.1c1.2-0.3,2.5-0.4,3.8-0.4c0.5,0,1.1,0.1,1.6,0.3c-0.2,0.3-0.3,0.6-0.4,0.9c0.7-0.3,1.5-0.5,2.3-0.6
			c1.9-0.2,3.7-0.2,5.6-0.1c1.1,0.1,2.1,0.7,2.7,1.6c0.3,0.2,0.3,0.6,0,0.9c0,0,0,0-0.1,0.1c-0.3,0.4-0.5,0.7-0.7,1.1
			c-1.4,2.2-1.4,5-0.1,7.3c1,1.6,2.4,3,4,3.9c0.2,0.1,0.4,0.2,0.4,0.4c0.2,0.9,0.2,1.8,0.1,2.7c-0.3,1-0.9,1.9-1.8,2.4
			c-0.4,0.3-0.3,0.7-0.3,1.1s0.3,0.3,0.5,0.4c0.5,0.1,1,0.3,1.5,0.5c0.3,0.1,0.5,0.5,0.4,0.8c0,0,0,0,0,0c-0.2,0.6,0,1.2,0.6,1.6
			c0.2,0.2,0.5,0.3,0.8,0.5c0.8,0.3,1.5,0.9,2.1,1.6c1.2,1.5,2.3,3.2,3.3,4.9c0.1,0.2,0.4,0.4,0.6,0.4c0.4,0,0.9,0.1,1.3,0.2
			c0.3,0.1,0.5,0.4,0.4,0.7c-0.2,0.6-0.3,1.2-0.2,1.8c0,0.2,0,0.3,0.2,0.3c1.2,0,2.4,0.1,3.7,0.2c-0.2-0.5-0.4-1-0.7-1.5
			c-0.3-0.6-0.8-1.1-1.4-1.3c-0.4-0.1-0.6-0.4-0.6-0.8c-0.1-0.5-0.4-1-0.8-1.3c-0.3-0.2-0.7-0.5-0.9-0.8c-1.4-1.4-2.6-3-3.9-4.5
			c-0.1-0.1-0.2-0.3-0.2-0.4c-0.1-0.3,0-0.5,0.3-0.5c0.2,0,0.4,0,0.6,0c1.3,0.2,2.3,1,2.9,2.1c0.2,0.5,0.7,0.8,1.2,0.8
			c0.2,0,0.4,0,0.6,0c0.5,0,0.8,0.4,0.8,0.9c0,0,0,0,0,0.1c0,0.4,0.1,0.8,0.2,1.2c0,0.5,0.5,0.8,1,0.8c0.8,0,1.7,0.1,2.5,0.2
			c-0.1-0.3-0.2-0.6-0.4-0.9c-0.3-0.8-0.9-1.4-1.6-1.8c-0.3-0.1-0.5-0.4-0.6-0.7c-0.1-0.7-0.5-1.2-1.2-1.5c-0.2-0.1-0.4-0.3-0.5-0.5
			c-0.1-0.4-0.4-0.7-0.7-0.9c-0.6-0.3-1.2-0.5-1.9-0.8c-0.5-0.2-1-0.4-1.6-0.7c-0.2-0.1-0.3-0.2-0.1-0.4c0.6-0.5,1.2-1.1,1.7-1.6
			c0.7-0.7,1.2-1.4,1.5-2.3c0.7-1.7,1.1-3.6,3.2-4.3c-0.7-0.2-1.2-0.6-1.5-1.3c2.7,1.1,5.5,1.9,8.4,2.1c2.2,0.2,4.4,0.2,6.6-0.2
			c0.4-0.1,0.5,0,0.5,0.4c-0.1,1.1-0.2,2.3-0.5,3.3c-0.1,0.3-0.2,0.5-0.4,0.7c-0.6,0.5-0.9,1.2-1.1,1.9c0,0.3-0.1,0.7-0.2,1
			c-0.7,2.5-1.6,4.9-2.6,7.3c-0.2,0.5-0.3,1.1-0.3,1.7c0,0.6,0.2,0.9,0.8,0.9c0.8,0.1,1.1,0.5,1,1.2c0,0.3,0,0.7,0,1
			c0.2,1.2,0.2,1.2,1.4,1.2h2.1c-0.3-0.7-0.6-1.4-1-2c-0.1-0.2-0.3-0.4-0.5-0.5c-1.2-0.5-1.9-1.8-1.6-3.1c0.6-1.9,1.4-3.8,2.5-5.5
			c0.2-0.4,0.5-0.8,0.9-1c0.2-0.1,0.3-0.3,0.4-0.6c0-0.3,0.2-0.6,0.4-0.7c0.2-0.1,0.3-0.4,0.2-0.7c-0.1-0.5,0-1,0.3-1.4
			c0.6-1.1,1.2-2.1,1.9-3.1c0.3-0.4,0.5-0.8,0.8-1.2c-0.2-0.1-0.4-0.1-0.5-0.1c-1.4-0.4-2.8-0.9-3.6-2.1c-0.5-0.8-1.3-1.2-2.2-1.2
			c-0.2,0-0.4-0.1-0.6-0.1c-0.3,0-0.5-0.3-0.5-0.5c0.9,0.1,1.9,0.2,2.8,0.4c0.1,0,0.3,0.1,0.3,0.2c0.4,0.8,1.1,1.4,1.9,1.9
			c1.5,0.8,3.2,1.4,4.9,1.7c0.8,0.1,1.5,0.3,2.3,0.6c0.3,0.1,0.4,0.2,0.3,0.6c-0.1,0.4-0.1,0.9,0,1.3c0.1,0.5,0,1-0.3,1.3
			c-0.6,0.9-1.4,1.7-2.3,2.3c-0.5,0.4-1,0.7-1.6,1c-0.5,0.2-0.8,0.6-1,1c-0.1,0.4-0.2,0.9-0.2,1.3c0,0.4-0.2,0.6-0.6,0.6
			c-0.5,0-0.9,0-1.4,0c-0.2,0-0.3,0.1-0.3,0.3c0,1.1,0,2.1,0,3.2c0,0.3,0.1,0.3,0.3,0.3c1.1-0.3,1.9-1,2.3-2.1
			c0.1-0.2,0.1-0.5,0.2-0.7c0.1-0.2,0.2-0.3,0.4-0.3c1.1,0.2,1.6-0.5,1.9-1.3c0.4-0.8,0.8-1.5,1.3-2.2c1.1-1.4,2.3-2.6,3.4-3.9
			c0.4-0.4,0.7-0.9,1-1.4c0.1-0.2,0.2-0.5,0.1-0.8c-0.2-0.4-0.3-0.8-0.4-1.3c-0.2-0.5-0.6-0.9-1.1-1.1c-0.3-0.1-0.5-0.2-0.8-0.4
			c-1.3-0.7-2.5-1.6-3.7-2.4c-0.3-0.2-0.4-0.3-0.2-0.7c1-2,1.3-4.2,0.9-6.4c-0.2-0.9-0.6-1.7-1.1-2.5c0.2,0,0.4,0.2,0.6,0.1
			c-0.1-0.2-0.1-0.4-0.2-0.6C63,23.2,61.9,21,60.5,19c-1.5-1.8-2.9-3.5-4.4-5.3c-0.7-0.8-1.4-1.7-2.2-2.6c0.8,0.2,1.7,0.2,2.5,0.2
			c0.8,0,1.5-0.3,2.1-0.8c0.4-0.3,0.9-0.3,1.3,0c0.3,0.4,0.8,0.5,1.3,0.3c0.3-0.2,0.7-0.2,1.1-0.2c0.2,0,0.3,0,0.5,0
			C63,10.5,63,10.2,63,9.9c0-0.3-0.3-0.2-0.4-0.2c-0.3,0-0.7,0-1-0.1c-0.2-0.1-0.4-0.1-0.4-0.4s0.3-0.2,0.5-0.1c0.5,0.1,0.9,0,1.4,0
			c0.2,0,0.2-0.1,0.2-0.3c0-0.5,0-1.1,0-1.6c0-0.2-0.2-0.4-0.4-0.5c-0.7-0.2-1.4-0.4-2.1-0.6c-0.1,0-0.2-0.1-0.3,0
			c-0.2,0.2-0.5,0.1-0.7,0c-0.4-0.2-0.8-0.3-1.2-0.4c-0.7-0.3-1.5-0.5-2.2-0.8c0.7-0.4,1.1-1.2,1.1-2c0-0.2,0-0.5-0.3-0.6
			C57,2.1,57,2.5,56.9,2.6c0,0,0,0-0.1,0c0-0.2-0.1-0.4-0.1-0.6c-0.1-0.5-0.3-1-0.7-1.3c-0.4-0.2-0.5-0.2-0.5,0.2
			c0,0.1,0,0.2-0.1,0.3c-0.6-0.6-1.4-1-2.2-1.2c0.2,0.3,0.3,0.5,0.4,0.6c0.2,0.3,0.4,0.7,0.5,1.1c0.1,0.5-0.2,0.8-0.7,0.9
			s-0.6-0.3-0.7-0.6c0-0.1,0-0.1,0-0.2c-0.1-0.7-0.2-1.4-0.4-2H52c-0.6,0.7-1.1,1.5-1.5,2.3c-0.1,0.2-0.3,0.3-0.4,0.2
			c-0.6-0.1-1.2-0.1-1.7,0c-1,0-2,0.4-2.7,1.1c-0.2,0.2-0.4,0.5-0.7,0.6c0.1,0.2,0.4,0.1,0.5,0.3c-1.1,0.5-2.2,1.2-3.2,2
			c0.4,0,0.8,0,1.2,0.2c-0.4,0.3-0.8,0.7-1.1,1c-0.1,0.1-0.2,0.2-0.1,0.3C42.3,8.1,42.4,8,42.5,8c0.5,0,1,0,1.4,0.2
			c-1,0.5-1.9,1.1-2.8,1.7c0.3,0.1,0.6,0.2,0.9,0.4c0.3,0.2,0.3,0.4,0,0.6s-0.6,0.4-1,0.6c-0.4,0.2-0.7,0.4-1,0.7
			c0.4,0.2,0.9,0.2,1.2,0.5c-0.4,0.1-0.9,0.2-1,0.7c0.6,0,1.1,0,1.6,0.1c-0.2,0.2-0.4,0.2-0.5,0.5c0.4,0.2,1,0.2,1.3,0.6
			c-0.5,0.1-1,0.3-1.5,0.6c0.5,0.1,1,0.2,1.3,0.7c-0.5,0.2-1.1,0.2-1.5,0.7l1.5,0.4c-0.5,0.4-0.2,0.5,0.1,0.6
			c0.3,0.1,0.6,0.2,0.8,0.5c-0.4,0-0.7,0.1-1,0.2c0.3,0.6,1,0.6,1.5,1c-0.4,0.4-1,0.3-1.4,0.6c0.8,0.3,1.6,0.8,2.3,1.4
			c-0.3,0.1-0.7-0.1-0.8,0.2s0.4,0.3,0.6,0.4c0.7,0.3,1.3,0.7,1.9,1.2c-0.4,0.2-0.9,0.1-1.3,0.3c0.7,0.4,1.4,0.7,2.1,1
			c-0.1,0.2-0.2,0.2-0.3,0.2c-1.4,0.5-2.9,0.8-4.4,0.8c-2.5,0-4.9-0.2-7.4-0.7c-1.8-0.3-3.6-0.3-5.3,0.2c-0.9,0.3-1.9,0.1-2.6-0.5
			c-0.6-0.5-1.2-1.2-1.8-1.7c-2.4-1.9-5.2-3.3-8.2-3.9c-1.7-0.3-3.3-0.6-5-0.8c-0.1,0-0.2-0.1-0.3,0c-0.1,0.1,0,0.2,0.1,0.3
			c0.1,0.2,0.3,0.4,0.4,0.6c-0.1,0.1-0.3,0.1-0.4,0C9.9,18.3,7.9,18,5.9,18C5.4,18,5,18,4.5,18c-0.1,0-0.2,0-0.3,0.2
			c0,0.1,0.1,0.1,0.2,0.2c0.3,0.1,0.6,0.3,0.8,0.6c-1.7,0-3.5,0.1-5.2,0.3C1.4,19.6,2.7,20.1,4,20.9z M53.6,5.7
			c0.3-0.2,0.6-0.3,0.9-0.5c0.6-0.3,1,0,1,0.7c-0.5-0.5-1-0.1-1.4,0.1c0,0.2,0.2,0.2,0.3,0.4c-0.5,0.1-0.6-0.3-0.9-0.5
			C53.4,5.8,53.5,5.8,53.6,5.7z M32.4,44.4c0-0.2,0.1-0.4,0.2-0.5c0.5-0.6,0.7-1.4,0.6-2.2c0-0.1,0-0.2,0-0.4c0.5,0,0.8,0.4,0.8,0.9
			c0,0.4-0.1,0.9-0.2,1.3c-0.1,0.2-0.2,0.5-0.2,0.7c-0.1,0.3-0.3,0.5-0.6,0.6c-0.2,0.1-0.4,0-0.5-0.1C32.4,44.6,32.4,44.5,32.4,44.4
			L32.4,44.4z"/>
		<path id="Tracé_8" class="st0" d="M12,12.5c1.1-0.1,2.2-0.1,3.3,0c1.4,0,2.8,0.1,4.1,0.1c2,0,4-0.1,6,0.1
			c1.3,0.1,2.6,0.2,3.9,0.2c1.1-0.1,2.3,0,3.4,0.2c1.3,0.2,2.6,0.2,3.9,0.1c0.4,0,0.7-0.2,0.9-0.6c0.1-0.4,0-0.7-0.2-1
			c-0.7-0.5-1.5-0.7-2.3-0.6c-0.6,0.3-1.3,0.2-1.9-0.1c-0.7-0.3-1.4-0.4-2.1-0.4c-0.8,0.1-1.6,0.2-2.4,0.2c-2,0-3.9-0.1-5.9,0.1
			c-1.2,0-2.3,0.1-3.5,0.2c-1.2,0.1-2.3,0.3-3.4,0.7c-0.1,0.1-0.2,0-0.3,0c-0.1-0.1-0.3-0.1-0.5,0c-0.4,0.2-0.9-0.1-1.3,0.3
			c0,0-0.2,0-0.2,0c-0.9-0.2-1.6,0.3-2.4,0.4C11.3,12.4,11.6,12.6,12,12.5z"/>
		<path id="Tracé_9" class="st0" d="M20,7.9c0.9-0.1,1.8-0.1,2.7-0.1c0.8,0,1.7,0.1,2.5,0c1.2,0,2.4-0.1,3.6-0.1
			c1.5,0,3,0.2,4.6,0.2c1-0.1,2-0.1,3,0.1c1,0.2,2,0.2,3,0.1c0.5,0,0.9-0.3,0.9-0.8c0-0.1,0-0.2,0-0.3C40,6.2,39,5.7,38.2,6
			c0,0,0,0,0,0c-0.5,0.3-1.1,0.2-1.5-0.1c-0.5-0.3-1-0.4-1.6-0.4c-0.6,0.1-1.3,0.2-1.9,0.2c-1.7,0-3.3,0-5,0.2
			c-0.9,0-1.8,0.1-2.7,0.3c-0.8,0.3-1.8,0.2-2.6,0.7c0,0-0.1,0-0.1,0c-0.5-0.1-1,0-1.5,0.3c-0.1,0-0.2,0-0.2,0
			c-0.7-0.2-1.3,0.4-1.9,0.5C19.4,7.9,19.7,8,20,7.9z"/>
		<path id="Tracé_10" class="st0" d="M30.4,3.1c0.7-0.1,1.4,0,2.1,0c2.6,0,5.3,0.1,7.9,0.2c0.7,0.1,1.5,0.2,2.2,0.1
			c0.3-0.1,0.5-0.1,0.6-0.4c0.1-0.3,0-0.6-0.2-0.8c-0.3-0.3-0.7-0.3-1.1-0.2c-0.3,0.1-0.6,0.1-0.8-0.1c-0.5-0.3-1-0.4-1.6-0.3
			c-0.3,0-0.5,0.1-0.8,0.1c-1.1,0-2.2,0-3.3,0.1c-0.9,0-1.8,0.2-2.7,0.4c-0.5,0.1-1,0.2-1.4,0.3c-0.4,0.1-0.8,0.2-1.3,0.4
			C30,3.1,30.2,3.2,30.4,3.1z"/>
	</g>
	<g id="Groupe_7" transform="translate(0.001 21.173)">
		<path id="Tracé_11" class="st0" d="M10.5,0.8C9.7,0.2,8.7,0,7.7,0C5.2,0,2.6,0,0,0v10.6c2.6,0,5.2,0,7.8,0c1,0,2-0.2,2.8-0.8
			c1.3-0.8,1.6-2.5,0.8-3.7C11.3,6,11.2,5.8,11,5.6c-0.2-0.2-0.2-0.3,0-0.5c1.1-1.1,1.1-2.8,0-3.9C10.9,1,10.7,0.9,10.5,0.8z
			 M9.4,8.4C9,8.6,8.5,8.8,8,8.8c-1.9,0-3.8,0-5.7,0c-0.4,0-0.5-0.2-0.4-0.5c0-0.6-0.3-1.5,0.1-1.8c0.4-0.4,1.2-0.1,1.8-0.1
			c0.5,0,1,0,1.5,0c0.9,0,1.8,0,2.7,0c0.5,0,1.1,0.1,1.6,0.4c0.5,0.2,0.7,0.7,0.5,1.2C9.8,8.2,9.6,8.3,9.4,8.4L9.4,8.4z M9.6,4
			C9.2,4.2,8.9,4.4,8.5,4.4C6.4,4.5,4.3,4.5,2.1,4.5c-0.3,0-0.3-0.2-0.3-0.4c0-0.6,0-1.2,0-1.8c0-0.3,0.1-0.4,0.4-0.4c1,0,2,0,3,0
			c0.9,0,1.8,0,2.8,0c0.5,0,1.1,0.1,1.5,0.4c0.5,0.3,0.6,0.9,0.3,1.3C9.8,3.8,9.7,3.9,9.6,4L9.6,4z"/>
		<path id="Tracé_12" class="st0" d="M193,0c-2.7,0-5.3,0-8,0c-0.3,0-0.5,0-0.5,0.4c0,3.3,0,6.5,0,9.8c0,0.3,0.1,0.4,0.4,0.4
			c2.9,0,5.8,0,8.7,0V8.8c-2.2,0-4.4,0-6.6,0c-0.5,0-0.7-0.1-0.7-0.6c0-0.5,0-1,0-1.5c0-0.4,0.1-0.5,0.5-0.5c1.9,0,3.8,0,5.8,0
			c0.5,0,0.6-0.1,0.6-0.6c0-1.3,0-1.3-1.3-1.3c-1.7,0-3.3,0-5,0c-0.4,0-0.5-0.1-0.5-0.5c0-0.5,0-0.9,0-1.4c0-0.4,0.1-0.6,0.5-0.6
			c2.2,0,4.5,0,6.7,0V0C193.4,0,193.2,0,193,0z"/>
		<path id="Tracé_13" class="st0" d="M180.3,7.2c1.7-0.7,2.6-2.5,2.2-4.2c-0.4-1.7-1.9-2.9-3.7-2.9c-2.7-0.2-5.4,0-8.1-0.1
			c-0.4,0-0.6,0.1-0.6,0.6c0,2.9,0,5.8,0,8.6c0,1.4,0,1.4,1.4,1.4c0.3,0,0.5-0.1,0.5-0.4c0-0.7,0-1.4,0-2.1c0-0.3,0.1-0.4,0.4-0.4
			c1.4,0,2.8,0,4.2,0c0.2,0,0.5,0.1,0.6,0.3c0.8,0.8,1.6,1.6,2.3,2.4c0.1,0.1,0.2,0.3,0.4,0.3c0.9,0,1.7,0,2.7,0l-3.1-3.2
			C179.9,7.4,180.1,7.3,180.3,7.2z M173.9,5.8c-0.5,0-1,0-1.5,0c-0.3,0-0.4-0.1-0.4-0.4c0-1,0-2.1,0-3.1c0-0.3,0.1-0.4,0.4-0.4
			c1,0,2,0,3,0s2,0,3,0c1.6,0.1,2.5,1.2,2,2.5c-0.3,0.8-1,1.3-1.9,1.3C177,5.8,175.5,5.8,173.9,5.8L173.9,5.8z"/>
		<path id="Tracé_14" class="st0" d="M54.6,10.5c-0.3-0.3-0.7-0.6-1-0.9c-0.3-0.3-0.4-0.4-0.1-0.8C54.8,7,55,4.8,54.1,2.8
			c-0.8-1.8-2.7-2.9-4.7-2.8c-1.1,0-2.2,0-3.3,0c-0.8,0-1.5,0.1-2.2,0.4c-2.6,1.3-3.7,4.6-2.4,7.2c0.7,1.5,2.1,2.5,3.7,2.8
			c1.7,0.2,3.4,0.2,5.1,0c0.5-0.1,1.1-0.5,1.5,0.1c0,0,0.1,0,0.2,0h2.4L54.6,10.5z M52.1,7.5c-0.2,0.2-0.3,0.4-0.5,0.1
			c-0.1-0.1-0.3-0.1-0.4-0.1h-2.4l1.1,1.2c-0.1,0.2-0.3,0.1-0.4,0.1c-1.3,0.1-2.5,0.1-3.8-0.1c-1.7-0.2-3-1.8-2.8-3.6
			c0.1-1.8,1.5-3.2,3.3-3.2c1.1,0,2.2,0,3.3,0c1.3,0,2.4,0.7,2.9,1.9C53,5,52.9,6.4,52.1,7.5L52.1,7.5z"/>
		<path id="Tracé_15" class="st0" d="M105.8,10.6h1.5c2.8,0.2,5.3-2,5.4-4.9c0-0.2,0-0.3,0-0.5c0.2-2.7-1.8-5-4.5-5.2
			c0,0-0.1,0-0.1,0c-1.2-0.1-2.4,0-3.7-0.1c-2.8-0.2-5.2,1.9-5.4,4.7c0,0.1,0,0.1,0,0.2c-0.2,2.4,1.3,4.6,3.5,5.4
			C103.6,10.6,104.7,10.7,105.8,10.6z M101,5c0.1-1.7,1.5-3,3.2-3.1c0.6,0,1.2,0,1.8,0c0,0,0,0,0,0c0.7,0,1.4,0,2.1,0
			c1.7,0.2,2.9,1.8,2.8,3.5c0,1.7-1.3,3.1-3,3.3c-1.4,0.2-2.9,0.2-4.3,0C101.9,8.4,100.7,6.8,101,5C101,5,101,5,101,5L101,5z"/>
		<path id="Tracé_16" class="st0" d="M114.5,0c-0.5,0-0.6,0.2-0.5,0.6c0,1.6,0,3.1,0,4.7v3.9c0,1.5,0,1.5,1.5,1.4
			c0.3,0,0.4-0.1,0.4-0.4c0-0.7,0-1.4,0-2.1c0-0.4,0.1-0.5,0.5-0.5c1.3,0,2.7,0,4,0c0.8,0,1.6,0,2.4-0.1c1.6-0.3,2.9-1.5,3.1-3.1
			c0.3-1.7-0.7-3.4-2.3-4.1c-0.6-0.2-1.2-0.3-1.8-0.3C119.3,0,116.9,0.1,114.5,0z M124,3.7c0.1,1-0.6,2-1.6,2.1c-0.1,0-0.2,0-0.3,0
			c-2,0.1-3.9,0-5.9,0c-0.3,0-0.4-0.1-0.4-0.4c0-1.1,0-2.1,0-3.2c0-0.3,0.1-0.3,0.4-0.3c1,0,2,0,2.9,0c0.9,0,1.8,0,2.8,0
			C123,1.8,123.9,2.6,124,3.7C124,3.7,124,3.7,124,3.7L124,3.7z"/>
		<path id="Tracé_17" class="st0" d="M88.6,7.7c1.9,0,3.7,0.1,5.6,0c2,0,3.7-1.5,3.8-3.6c0.2-2-1.3-3.8-3.3-3.9c-0.1,0-0.2,0-0.3,0
			c-2.6-0.1-5.2,0-7.8-0.1c-0.4,0-0.4,0.2-0.4,0.5c0,1.6,0,3.2,0,4.8v3.9c0,1.5,0,1.5,1.5,1.4c0.3,0,0.4-0.1,0.4-0.4
			c0-0.7,0-1.4,0-2.1C88,7.8,88.2,7.7,88.6,7.7z M88.1,5.4c0-1,0-2.1,0-3.1c0-0.3,0.1-0.4,0.4-0.4c1,0,2,0,2.9,0c0.9,0,1.8,0,2.7,0
			c1.1-0.1,2,0.7,2.1,1.8c0,0,0,0,0,0c0.1,1-0.7,2-1.8,2c-0.1,0-0.1,0-0.2,0c-2,0.1-3.9,0-5.9,0C88.1,5.8,88.1,5.7,88.1,5.4
			L88.1,5.4z"/>
		<path id="Tracé_18" class="st0" d="M72.6,1.9c1.8,0,3.7,0,5.5,0c1.4,0,1.4,0,1.4-1.4C79.5,0.2,79.4,0,79,0c-2.7,0-5.3,0-8,0
			c-0.6,0-0.7,0.2-0.7,0.7c0,1.5,0,3,0,4.6l0,0c0,1.6,0,3.2,0,4.8c0,0.4,0.1,0.5,0.5,0.5c2.5,0,4.9,0,7.4,0c1.3,0,1.3,0,1.3-1.3
			c0-0.5-0.1-0.6-0.6-0.5c-2.1,0-4.1,0-6.2,0c-0.4,0-0.6-0.1-0.5-0.5c0-0.5,0-1,0-1.5c0-0.5,0.1-0.6,0.6-0.6c1.7,0,3.3,0,5,0
			c1.2,0,1.2,0,1.2-1.2c0-0.5-0.1-0.7-0.7-0.7c-1.9,0-3.7,0-5.6,0c-0.5,0-0.6-0.1-0.5-0.6c0-0.5,0-0.9,0-1.4
			C72.1,2,72.3,1.9,72.6,1.9z"/>
		<path id="Tracé_19" class="st0" d="M159.3,1c-0.8-1.3-2-1.3-2.8,0c0,0-0.1,0.1-0.1,0.1c-1.8,3.1-3.7,6.1-5.5,9.2
			c0,0.1-0.1,0.1-0.1,0.3c0.6,0,1.3,0,1.9,0c0.3,0,0.5-0.1,0.6-0.4c0.4-0.8,0.9-1.5,1.4-2.3c0.1-0.2,0.3-0.4,0.6-0.3
			c1.7,0,3.4,0,5.1,0c0.2,0,0.5,0.1,0.6,0.3c0.4,0.8,0.9,1.5,1.4,2.3c0.1,0.2,0.2,0.4,0.5,0.3c0.7,0,1.4,0,2.2,0l-3.7-6.3
			C160.6,3.2,159.9,2.1,159.3,1z M156.4,5.8c-0.3,0-0.3-0.1-0.2-0.4c0.5-0.8,0.9-1.5,1.4-2.3c0.1-0.2,0.2-0.3,0.4,0
			c0.5,0.9,1,1.7,1.6,2.7C158.4,5.8,157.4,5.8,156.4,5.8z"/>
		<path id="Tracé_20" class="st0" d="M38.8,1.4c0-1.5,0-1.5-1.5-1.4c-0.3,0-0.4,0.1-0.4,0.4c0,1,0,2,0,3v3.9
			c-0.2-0.2-0.4-0.3-0.5-0.5c-2-2.1-4.1-4.1-6.1-6.2c-0.2-0.3-0.5-0.5-0.9-0.6c-0.4-0.2-0.8,0-1,0.4c0,0.1-0.1,0.2-0.1,0.3
			c0,0.2,0,0.4,0,0.6c0,2.7,0,5.3,0,8c0,1.3,0,1.3,1.3,1.3c0.5,0,0.6-0.1,0.6-0.6c0-2.2,0-4.4,0-6.8c0.5,0.5,0.9,0.9,1.3,1.3
			c1.9,1.9,3.7,3.7,5.6,5.6c0.3,0.4,0.8,0.6,1.3,0.4c0.5-0.2,0.4-0.7,0.4-1.1C38.8,6.8,38.8,4.1,38.8,1.4z"/>
		<path id="Tracé_21" class="st0" d="M21.7,1c-0.8-1.3-2-1.4-2.8-0.1c-0.1,0.1-0.2,0.3-0.3,0.4c-0.4,0.6-0.7,1.2-1.1,1.8l-4.5,7.4
			c0.7,0,1.4,0,2,0c0.3,0,0.5-0.1,0.6-0.4C16.1,9.5,16.6,8.8,17,8c0.1-0.2,0.4-0.4,0.6-0.4c1.7,0,3.4,0,5.1,0c0.3,0,0.5,0.1,0.7,0.4
			c0.4,0.8,0.9,1.5,1.3,2.2c0.1,0.1,0.1,0.3,0.4,0.3c0.7,0,1.4,0,2.2,0c-0.8-1.3-1.5-2.5-2.2-3.7C24,5,22.9,3,21.7,1z M18.4,5.8
			C19,4.8,19.5,4,20,3.1c0.2-0.3,0.3-0.2,0.4,0c0.5,0.9,1,1.7,1.6,2.7L18.4,5.8z"/>
		<path id="Tracé_22" class="st0" d="M139,6.5c0-1,0-2,0-2.9h0V1.4c0-1.3,0-1.3-1.3-1.3c-0.4,0-0.5,0.1-0.5,0.5c0,1.7,0,3.5,0,5.2
			c0,1.9-0.8,2.7-2.7,2.9c-0.9,0.1-1.8,0.1-2.8,0c-1.4,0.1-2.5-1-2.6-2.4c0-0.2,0-0.3,0-0.5c0-1.5,0-2.9,0-4.4s0-1.4-1.4-1.4
			c-0.4,0-0.4,0.1-0.4,0.5c0,1.8,0,3.6,0,5.5c0,2.6,1.2,4,3.6,4.5c1.6,0.3,3.3,0.3,4.9-0.1C137.7,10,139.1,8.4,139,6.5z"/>
		<path id="Tracé_23" class="st0" d="M56.5,6.6c0,1.9,1.4,3.5,3.2,3.8c1.7,0.4,3.4,0.4,5,0c2.1-0.3,3.6-2.1,3.4-4.2
			c0-0.9,0-1.8,0-2.7c0-0.7,0-1.4,0-2.1c0-1.4,0-1.4-1.4-1.3c-0.3,0-0.5,0.1-0.5,0.5c0,1.8,0,3.5,0,5.3c0.2,1.4-0.8,2.6-2.1,2.8
			c0,0-0.1,0-0.1,0c-1.2,0.2-2.4,0.2-3.5,0c-1.3-0.1-2.3-1.1-2.2-2.4c0-0.1,0-0.1,0-0.2c0-1.5,0-3.1,0-4.6c0-1.5,0-1.5-1.5-1.4
			c-0.3,0-0.4,0.1-0.4,0.4C56.4,2.5,56.3,4.6,56.5,6.6z"/>
		<path id="Tracé_24" class="st0" d="M149.4,8.8c-2.1,0-4.2,0-6.3,0c-0.4,0-0.5-0.1-0.5-0.5c0-2.3,0-4.6,0-6.9c0-1.4,0-1.4-1.4-1.4
			c-0.4,0-0.5,0.1-0.5,0.5c0,1.6,0,3.2,0,4.8s0,3.2,0,4.8c0,0.4,0.1,0.5,0.5,0.5c2.4,0,4.8,0,7.3,0c1.3,0,1.3,0,1.3-1.4
			C149.9,8.9,149.8,8.8,149.4,8.8z"/>
		<path id="Tracé_25" class="st0" d="M167.9,1.4c0-1.5,0-1.4-1.5-1.4c-0.4,0-0.4,0.1-0.4,0.5c0,1.6,0,3.2,0,4.8v3.9
			c0,1.4,0,1.4,1.4,1.4c0.4,0,0.5-0.1,0.5-0.5C167.9,7.2,167.9,4.3,167.9,1.4z"/>
	</g>
	<g id="Groupe_8" transform="translate(88.936 37.508)">
		<path id="Tracé_26" class="st0" d="M79.5,0.1c-0.6-0.2-1.2,0.1-1.5,0.6l-2.5,4.1c-0.8-1.4-1.7-2.6-2.4-4
			c-0.3-0.6-0.9-0.9-1.5-0.8c-0.3,0-0.4,0.1-0.2,0.4s0.4,0.6,0.6,0.9C73,3.1,74,5,75.2,6.6h0.4c1-1.4,1.9-2.9,2.8-4.4
			c0.4-0.6,0.7-1.2,1.1-1.8C79.6,0.3,79.8,0.2,79.5,0.1z"/>
		<path id="Tracé_27" class="st0" d="M67.5,2.7c0.2-1.6-0.9-2.6-2.7-2.6c-1.4,0-2.8,0-4.2,0C60.1,0,60,0.2,60,0.6
			c0,1.8,0,3.5,0,5.3c0,0.4,0.1,0.6,0.5,0.6c0.4,0,0.6,0,0.6-0.5c0-1.3,0-1.3,1.3-1.3c0,0,0,0,0.1,0c1.1-0.3,2.2,0.2,2.8,1.2
			c0.6,0.8,1.4,0.6,2.3,0.6l-2-1.8C66.8,4.2,67.4,3.7,67.5,2.7z M65.5,3.4c-1.3,0.2-2.7,0.2-4,0.1c-0.2,0-0.2-0.1-0.3-0.3
			c0-0.1,0-0.1,0-0.2c0-0.6-0.3-1.4,0.1-1.7c0.5-0.4,1.4-0.1,1.8-0.1c0.9,0,1.5,0,2.1,0c0.6,0,1.1,0.6,1,1.2
			C66.3,2.9,65.9,3.3,65.5,3.4L65.5,3.4z"/>
		<path id="Tracé_28" class="st0" d="M102.6,2.5c-0.2,0-0.4,0-0.6,0c-0.8,0-1.7,0-2.5,0c-0.4,0-0.9-0.1-0.9-0.6s0.4-0.6,0.9-0.6
			c0.2,0,0.4,0,0.6,0c1.2,0,2.4,0,3.6,0c0.4,0,0.5-0.2,0.5-0.5c0-0.3,0.1-0.7-0.4-0.7c-1.5,0-3.1,0-4.6,0c-0.9-0.1-1.8,0.7-1.8,1.6
			c0,0.1,0,0.2,0,0.3c0.1,1,0.9,1.7,1.9,1.6c0,0,0,0,0.1,0c0.9,0,1.8,0,2.8,0c1,0,1.5,0.3,1.5,0.9s-0.6,0.9-1.5,0.9
			c-1.4,0-2.7,0-4.1,0c-0.5,0-0.5,0.3-0.5,0.6s0,0.6,0.5,0.5c0.8,0,1.5,0,2.3,0l0,0c0.8,0,1.6,0,2.4,0c1.1-0.1,1.9-1.1,1.8-2.2
			C104.5,3.3,103.7,2.6,102.6,2.5L102.6,2.5z"/>
		<path id="Tracé_29" class="st0" d="M85.9,0.1c-1-0.2-2.1-0.2-3.1,0c-1.6,0.1-2.8,1.5-2.7,3.1c-0.1,1.6,1,3,2.6,3.3
			c0.5,0,1,0.1,1.5,0c0,0,0,0,0,0c0.4,0,0.9,0,1.3,0c1.5-0.1,2.7-1.3,2.8-2.9C88.5,1.7,87.6,0.4,85.9,0.1z M85.6,5.3
			c-0.9,0.2-1.9,0.2-2.8,0c-1-0.2-1.7-1.2-1.5-2.2c0.1-1,0.9-1.8,1.8-1.8c0.4,0,0.8,0,1.2,0l0,0c0.3,0,0.6,0,1,0c1,0,1.9,0.8,2,1.8
			C87.4,4.1,86.7,5.1,85.6,5.3L85.6,5.3z"/>
		<path id="Tracé_30" class="st0" d="M48.2,0.1c-1-0.1-2-0.2-3,0c-1.6,0.1-2.8,1.4-2.7,3c-0.1,1.6,1,3.1,2.6,3.3
			c0.5,0.1,1.1,0.1,1.6,0c0,0,0,0,0,0c0.4,0,0.7,0,1.1,0c1.7-0.1,3-1.4,3-3.1C50.9,1.8,49.8,0.3,48.2,0.1z M47.8,5.3
			c-0.9,0.1-1.7,0.1-2.6,0c-1.1-0.3-1.8-1.4-1.5-2.5c0.2-0.8,0.9-1.5,1.8-1.5c0.4,0,0.7,0,1.1,0v0c0.3,0,0.6,0,0.9,0
			c1-0.1,1.9,0.7,2.1,1.7c0.2,1-0.4,2.1-1.5,2.3C48,5.3,47.9,5.3,47.8,5.3L47.8,5.3z"/>
		<path id="Tracé_31" class="st0" d="M29.6,5.4c-1.1,0-2.2,0-3.3,0c-0.6,0-0.6-0.3-0.5-0.7s-0.2-0.9,0.5-0.9c1,0,2,0,3,0
			c0.5,0,0.5-0.2,0.5-0.6s0-0.6-0.5-0.6c-1,0-2,0-3,0c-0.6,0-0.6-0.3-0.6-0.7c0-0.4,0-0.7,0.6-0.7c1.1,0,2.2,0,3.3,0
			c0.5,0,0.5-0.2,0.5-0.6s0.1-0.6-0.5-0.6c-1.5,0-3.1,0-4.6,0c-0.4,0-0.5,0.1-0.5,0.5c0,0.9,0,1.8,0,2.8c0,0.9,0,1.8,0,2.7
			c0,0.4,0.1,0.5,0.5,0.5c1.5,0,3,0,4.6,0c0.5,0,0.5-0.2,0.5-0.6C30.1,5.6,30.1,5.3,29.6,5.4z"/>
		<path id="Tracé_32" class="st0" d="M39.4,0.1c-1.4,0-2.8,0-4.1,0c-0.4,0-0.5,0.2-0.5,0.6c0,0.9,0,1.8,0,2.7s0,1.8,0,2.7
			c0,0.4,0.1,0.5,0.5,0.5c0.5,0,0.8-0.1,0.7-0.7c0-0.2,0-0.4,0-0.6c-0.1-0.5,0.2-0.5,0.6-0.5c1,0,2.1,0,3.1,0c1.3,0,2.3-1,2.3-2.3
			s-1-2.3-2.3-2.3C39.5,0.1,39.4,0.1,39.4,0.1L39.4,0.1z M39.9,3.5c-1.3,0.1-2.5,0.2-3.8,0.1c-0.2,0-0.2-0.1-0.2-0.3
			c0-0.1,0-0.1,0-0.2c0-0.6-0.3-1.4,0.1-1.7c0.5-0.4,1.3-0.1,1.8-0.1c0.8,0,1.4,0,1.9,0c0.6,0,1,0.4,1,1C40.9,2.8,40.5,3.3,39.9,3.5
			C39.9,3.5,39.9,3.5,39.9,3.5L39.9,3.5z"/>
		<path id="Tracé_33" class="st0" d="M9.7,0.5C9.5,0.8,9.3,1.1,9.2,1.4c-1,1.6-2,3.3-3,4.9c0.6,0,1.3,0.5,1.6-0.2
			C8.2,5,9.4,4.4,10.5,4.7c0.2,0,0.5,0,0.7,0c0.7-0.2,1.3,0.2,1.6,0.8c0.6,1.1,0.6,1.1,2,0.9c-1.2-2-2.3-3.9-3.5-5.9
			c-0.2-0.4-0.8-0.6-1.2-0.4C9.9,0.2,9.8,0.4,9.7,0.5z M9.5,3.5c0.3-0.6,0.6-1.2,1-1.7c0.4,0.5,0.8,1.1,1,1.7H9.5z"/>
		<path id="Tracé_34" class="st0" d="M95.9,0c-0.5,0-0.6,0.2-0.6,0.6c0.1,1.1,0,2.2-0.1,3.3c0,0.7-0.6,1.2-1.3,1.3
			c-0.6,0.1-1.2,0.1-1.8,0c-1.1-0.1-1.6-0.6-1.6-1.7c0-1,0-2,0-3c0-0.5-0.2-0.5-0.6-0.5c-0.3,0-0.7-0.1-0.7,0.4
			c0,1.2-0.1,2.4,0.1,3.6c0,1.1,0.8,2,1.9,2.2c1,0.2,2.1,0.2,3.1,0c1.2-0.2,2-1.2,2-2.4c0-0.6,0-1.1,0-1.7l0,0c0-0.6,0-1.1,0-1.7
			C96.5,0.2,96.4,0,95.9,0z"/>
		<path id="Tracé_35" class="st0" d="M58.2,0c-0.4,0-0.5,0.1-0.5,0.6c0,1,0,2,0,3c0.1,0.8-0.6,1.6-1.4,1.6c0,0-0.1,0-0.1,0
			c-0.5,0.1-1.1,0.1-1.6,0c-1.2-0.1-1.7-0.6-1.7-1.8c0-1,0-1.9,0-2.9c0-0.5-0.2-0.5-0.6-0.5c-0.4,0-0.6,0.1-0.6,0.5
			c0,1.1,0,2.3,0,3.4c0,1.1,0.7,2.1,1.8,2.4c1,0.3,2,0.3,3,0.1c1.3-0.1,2.3-1.2,2.2-2.6c0,0,0-0.1,0-0.1c0-0.5,0-0.9,0-1.4
			c0-0.6,0-1.2,0-1.7C58.9,0.1,58.6,0.1,58.2,0z"/>
		<path id="Tracé_36" class="st0" d="M5.1,0c-1.5,0-3.1,0-4.6,0C0.1,0,0,0.2,0,0.6c0,0.9,0,1.8,0,2.7C0,4.2,0,5.1,0,6
			c0,0.4,0.2,0.5,0.5,0.5c0.3,0,0.7,0.1,0.6-0.5c0-0.5,0-1,0-1.5c0-0.5,0.1-0.7,0.7-0.7c0.9,0,1.9,0,2.8,0c0.4,0,0.7,0,0.7-0.6
			c0-0.6-0.2-0.6-0.7-0.6c-1,0-1.9,0-2.9,0c-0.6,0-0.6-0.3-0.6-0.7c0-0.4,0-0.7,0.6-0.7c1.1,0.1,2.3,0,3.4,0c0.5,0,0.4-0.3,0.5-0.6
			S5.6,0,5.1,0z"/>
		<path id="Tracé_37" class="st0" d="M23.4,0c-0.8,0-1.7,0-2.5,0c-0.9,0-1.8,0-2.8,0c-0.5,0-0.4,0.3-0.4,0.6s-0.1,0.6,0.4,0.6
			s1,0,1.5,0s0.6,0.2,0.6,0.6c0,1.4,0,2.7,0,4.1c0,0.4,0.1,0.6,0.6,0.6c0.5,0,0.6-0.1,0.6-0.6c0-1.4,0-2.8,0-4.1
			c0-0.4,0.1-0.6,0.5-0.5c0.5,0,1,0,1.4,0c0.5,0.1,0.5-0.2,0.5-0.6S23.9,0,23.4,0z"/>
		<path id="Tracé_38" class="st0" d="M16.6,3.3c0-0.9,0-1.8,0-2.7C16.6,0.1,16.4,0,16,0s-0.6,0-0.6,0.5c0,1.8,0,3.6,0,5.4
			c0,0.5,0.2,0.5,0.6,0.5s0.6,0,0.6-0.5C16.6,5.1,16.6,4.2,16.6,3.3z"/>
	</g>
	<rect id="Rectangle_6" x="202.9" y="8.2" class="st0" width="1.8" height="46.9"/>
</g>
</svg>
