<svg xmlns="http://www.w3.org/2000/svg" viewBox="0 0 277.557 59.434">
  <defs>
    <style>
      .cls-1 {
        fill: #471301;
      }

      .cls-2 {
        fill: #f26403;
      }

      .cls-3 {
        fill: #7d7c7d;
      }

      .cls-4 {
        fill: #7e7c7d;
      }

      .cls-5 {
        fill: #f26503;
      }

      .cls-6 {
        fill: #f26504;
      }
    </style>
  </defs>
  <g id="Groupe_12" data-name="Groupe 12" transform="translate(-0.001 0.003)">
    <g id="Groupe_6" data-name="Groupe 6" transform="translate(208.085 -0.003)">
      <path id="Tracé_7" data-name="Tracé 7" class="cls-1" d="M1376.392,20.916c-.641.033-1.131-.137-1.631-.069-.123.017-.285,0-.337.12-.06.137.1.214.182.3a5.907,5.907,0,0,0,3.869,1.632c.617.06,1.239.071,1.966.111-.488.3-.886.533-1.276.782-.1.063-.252.128-.219.277s.215.113.32.121a15.8,15.8,0,0,0,3.912-.1,16.985,16.985,0,0,1,3.795-.418,3.984,3.984,0,0,1,1.6.3,1.816,1.816,0,0,0-.393.912,8.37,8.37,0,0,1,2.318-.564,37.859,37.859,0,0,1,5.568-.117,3.851,3.851,0,0,1,2.733,1.551.618.618,0,0,1-.023.926,5.613,5.613,0,0,0-.74,1.149,7.069,7.069,0,0,0-.148,7.28,11.5,11.5,0,0,0,4,3.945c.155.1.355.159.383.383a7.215,7.215,0,0,1,.1,2.712,4.125,4.125,0,0,1-1.812,2.445c-.426.286-.317.669-.321,1.052s.319.328.536.4a8.374,8.374,0,0,1,1.455.542.622.622,0,0,1,.4.784,1.4,1.4,0,0,0,.569,1.579,3.259,3.259,0,0,0,.819.46A4.584,4.584,0,0,1,1406.08,51a40.083,40.083,0,0,1,3.342,4.862.638.638,0,0,0,.636.367,2.694,2.694,0,0,1,1.288.237c.285.136.547.359.366.7a4.968,4.968,0,0,0-.224,1.8c-.026.188.025.28.247.289,1.21.047,2.42.111,3.668.172a6.531,6.531,0,0,0-.742-1.491,2.583,2.583,0,0,0-1.411-1.317.833.833,0,0,1-.637-.816,1.837,1.837,0,0,0-.83-1.32,6.94,6.94,0,0,1-.94-.786c-1.39-1.422-2.572-3.026-3.918-4.487a1.05,1.05,0,0,1-.2-.42c-.081-.286-.011-.495.331-.537a1.928,1.928,0,0,1,.562-.025,3.994,3.994,0,0,1,2.9,2.132,1.442,1.442,0,0,0,1.246.838,5.458,5.458,0,0,1,.565.049.839.839,0,0,1,.787.948,4.335,4.335,0,0,0,.239,1.235.888.888,0,0,0,.952.8c.836.037,1.67.141,2.548.22a3.817,3.817,0,0,0-.393-.94,3.633,3.633,0,0,0-1.614-1.79.9.9,0,0,1-.585-.713,1.826,1.826,0,0,0-1.174-1.479.7.7,0,0,1-.452-.5,1.321,1.321,0,0,0-.734-.878q-.924-.411-1.854-.81c-.519-.223-1.042-.436-1.561-.661-.244-.106-.294-.215-.054-.428.588-.524,1.157-1.071,1.714-1.629a6.641,6.641,0,0,0,1.495-2.311c.666-1.691,1.11-3.59,3.209-4.34a2.422,2.422,0,0,1-1.515-1.257,28.7,28.7,0,0,0,8.374,2.139,24.278,24.278,0,0,0,6.638-.2c.382-.068.511,0,.5.4a16.71,16.71,0,0,1-.531,3.35,1.467,1.467,0,0,1-.385.684,3.416,3.416,0,0,0-1.07,1.949,6.161,6.161,0,0,1-.166,1.021,73.36,73.36,0,0,1-2.556,7.286,4.425,4.425,0,0,0-.324,1.656c.008.635.193.854.808.943.786.114,1.07.456,1.006,1.246a3.721,3.721,0,0,0,.012.989c.216,1.15.217,1.15,1.38,1.15h2.092a8.388,8.388,0,0,0-1.038-1.989,1.246,1.246,0,0,0-.526-.46,2.682,2.682,0,0,1-1.557-3.121,24.6,24.6,0,0,1,2.492-5.475,2.577,2.577,0,0,1,.944-1.032.719.719,0,0,0,.358-.584.82.82,0,0,1,.4-.7.544.544,0,0,0,.246-.662,1.726,1.726,0,0,1,.256-1.434,25.169,25.169,0,0,1,1.871-3.058c.271-.4.549-.79.837-1.205-.2-.056-.354-.094-.5-.14-1.366-.42-2.806-.856-3.6-2.09a2.645,2.645,0,0,0-2.222-1.215,3.759,3.759,0,0,1-.6-.121.621.621,0,0,1-.513-.528c.948.123,1.865.245,2.784.36a.387.387,0,0,1,.316.241,5.018,5.018,0,0,0,1.89,1.874,14.651,14.651,0,0,0,4.879,1.673,14.951,14.951,0,0,1,2.286.559c.287.108.418.242.33.6a2.7,2.7,0,0,0,0,1.315,1.569,1.569,0,0,1-.278,1.332,9.744,9.744,0,0,1-2.309,2.348,5.272,5.272,0,0,1-1.606.967,1.522,1.522,0,0,0-.953,1.043,4.2,4.2,0,0,0-.182,1.3c0,.413-.167.6-.6.58-.472-.026-.947.008-1.419-.007-.234-.007-.294.081-.292.3.008,1.073.012,2.146,0,3.219,0,.284.115.3.344.271a3.14,3.14,0,0,0,2.257-2.077,4.69,4.69,0,0,1,.241-.711c.075-.188.229-.348.432-.3,1.093.237,1.574-.533,1.936-1.286a12.043,12.043,0,0,1,1.339-2.21c1.056-1.359,2.275-2.574,3.407-3.866a4.9,4.9,0,0,0,.992-1.428c.095-.247.249-.513.1-.769a7.742,7.742,0,0,1-.445-1.284,1.626,1.626,0,0,0-1.084-1.093,3.969,3.969,0,0,1-.8-.388c-1.266-.737-2.469-1.574-3.7-2.371-.311-.2-.361-.344-.2-.7a9.847,9.847,0,0,0,.882-6.424,7.431,7.431,0,0,0-1.059-2.45c.244-.039.366.191.566.138-.06-.229-.119-.439-.17-.65a15.839,15.839,0,0,0-2.947-6.607c-1.454-1.763-2.885-3.545-4.374-5.279-.724-.844-1.443-1.693-2.234-2.623a12.816,12.816,0,0,0,2.506.208,2.818,2.818,0,0,0,2.1-.8,1.078,1.078,0,0,1,1.29,0,1.1,1.1,0,0,0,1.275.3,2.4,2.4,0,0,1,1.087-.219c.157-.015.32.013.472-.017.381-.076.389-.432.424-.7.042-.32-.26-.179-.417-.2a3.557,3.557,0,0,1-.98-.106c-.17-.071-.419-.15-.369-.364s.316-.179.486-.133a5.173,5.173,0,0,0,1.359-.029c.176,0,.24-.1.233-.275-.021-.536-.027-1.072-.048-1.607a.454.454,0,0,0-.383-.464c-.712-.191-1.416-.413-2.125-.617-.087-.025-.223-.05-.271-.005-.239.223-.454.089-.686,0-.4-.153-.8-.286-1.2-.433-.73-.271-1.458-.547-2.213-.83a2.5,2.5,0,0,0,1.111-1.993c-.018-.231-.01-.533-.257-.619-.267-.094-.226.283-.394.378-.014.008-.028.013-.067.032-.039-.189-.069-.374-.116-.554a1.944,1.944,0,0,0-.728-1.277c-.357-.23-.463-.171-.482.242,0,.1.033.226-.111.3A5.054,5.054,0,0,0,1425.55.141c.182.271.3.452.424.632a3.008,3.008,0,0,1,.477,1.069c.1.483-.159.8-.694.942s-.553-.27-.689-.569a1.478,1.478,0,0,1-.033-.185A18.688,18.688,0,0,0,1424.669,0h-.189a19.44,19.44,0,0,0-1.51,2.274.39.39,0,0,1-.439.239,10.734,10.734,0,0,0-1.748-.033,3.8,3.8,0,0,0-2.677,1.115,2.245,2.245,0,0,1-.692.611c.147.174.417.093.543.327a15.168,15.168,0,0,0-3.176,1.972,3.744,3.744,0,0,1,1.168.154A9.78,9.78,0,0,0,1414.8,7.7c-.068.082-.168.174-.1.29.054.092.172.05.261.05a3.357,3.357,0,0,1,1.429.163,26.769,26.769,0,0,0-2.843,1.706,6.593,6.593,0,0,1,.858.385c.264.187.349.352.009.551s-.641.4-.958.6a4.787,4.787,0,0,0-1.028.679c.419.166.862.175,1.179.535-.432.114-.88.151-1.049.657a6.908,6.908,0,0,1,1.645.131c-.177.2-.42.222-.494.459.425.207.954.2,1.274.624a4.986,4.986,0,0,0-1.452.633c.509.142,1,.2,1.295.66-.506.218-1.076.21-1.486.694l1.473.362c-.48.366-.237.472.118.594a1.333,1.333,0,0,1,.828.5,3.17,3.17,0,0,0-1.044.166c.344.609,1.032.626,1.548.958-.428.375-.979.328-1.436.6a7.48,7.48,0,0,1,2.293,1.385c-.324.069-.737-.089-.79.179s.383.286.6.419a9.294,9.294,0,0,1,1.859,1.176c-.419.229-.878.1-1.329.28a13.375,13.375,0,0,0,2.089.95c-.071.167-.224.192-.347.247a12.818,12.818,0,0,1-4.421.848,33.114,33.114,0,0,1-7.364-.7,11.968,11.968,0,0,0-5.343.194,2.585,2.585,0,0,1-2.571-.547c-.646-.511-1.151-1.177-1.806-1.666a20.094,20.094,0,0,0-8.22-3.938c-1.67-.322-3.347-.585-5.032-.8-.106-.014-.241-.066-.314.031-.092.121.028.229.08.338.106.22.347.355.409.608a.506.506,0,0,1-.389.022,29.238,29.238,0,0,0-5.893-.754c-.471-.01-.944.025-1.416.058-.091.006-.247.013-.25.16,0,.1.111.133.193.18a1.919,1.919,0,0,1,.766.577,37.931,37.931,0,0,0-5.206.265A13.094,13.094,0,0,1,1376.392,20.916Zm49.63-15.208a10.18,10.18,0,0,1,.9-.5c.577-.267.951-.017.98.731-.537-.482-.955-.082-1.4.06-.014.2.238.231.265.424-.453.107-.617-.286-.865-.509C1425.8,5.824,1425.953,5.749,1426.022,5.708Zm-21.2,38.668a1.043,1.043,0,0,1,.2-.521,2.542,2.542,0,0,0,.551-2.2,2.642,2.642,0,0,1,0-.369.884.884,0,0,1,.829.91,3.472,3.472,0,0,1-.232,1.288,6.337,6.337,0,0,0-.216.717.788.788,0,0,1-.573.621A.386.386,0,0,1,1404.821,44.376Z" transform="translate(-1372.431 0.003)"/>
      <path id="Tracé_8" data-name="Tracé 8" class="cls-2" d="M1446.431,70.517c1.094-.067,2.193-.064,3.283-.044,1.38.026,2.76.129,4.143.133,2,.006,4-.071,6,.085a31.406,31.406,0,0,0,3.918.161,14.844,14.844,0,0,1,3.438.163,14.062,14.062,0,0,0,3.9.091.89.89,0,0,0,.853-.56.959.959,0,0,0-.221-1.007,3.489,3.489,0,0,0-2.335-.606,1.957,1.957,0,0,1-1.92-.144,4.031,4.031,0,0,0-2.106-.385c-.8.057-1.6.169-2.4.157-1.953-.03-3.905-.083-5.857.061a29.176,29.176,0,0,0-3.485.225,11.579,11.579,0,0,0-3.392.7.313.313,0,0,1-.318-.015.5.5,0,0,0-.458-.02c-.4.163-.886-.057-1.255.274-.043.039-.156.022-.229,0-.88-.242-1.588.341-2.445.433A.939.939,0,0,0,1446.431,70.517Z" transform="translate(-1434.464 -58.022)"/>
      <path id="Tracé_9" data-name="Tracé 9" class="cls-3" d="M1499.7,38.547a23.258,23.258,0,0,1,2.728-.052c.834.022,1.67.052,2.5.042,1.2-.015,2.392-.077,3.588-.1,1.527-.023,3.045.217,4.575.156a11.33,11.33,0,0,1,2.968.095,8.814,8.814,0,0,0,2.957.066.844.844,0,0,0,.865-1.08,1.637,1.637,0,0,0-2.076-1.082,1.351,1.351,0,0,1-1.488-.109,2.625,2.625,0,0,0-1.577-.373c-.642.065-1.283.2-1.924.2a42.43,42.43,0,0,0-4.955.182,16.2,16.2,0,0,0-2.715.29c-.849.254-1.8.156-2.56.718a.2.2,0,0,1-.134.034,2.041,2.041,0,0,0-1.467.25.309.309,0,0,1-.228.021c-.741-.223-1.25.359-1.939.462A.839.839,0,0,0,1499.7,38.547Z" transform="translate(-1479.66 -30.628)"/>
      <path id="Tracé_10" data-name="Tracé 10" class="cls-2" d="M1570.149,12.077c.686-.067,1.373-.005,2.059-.011,2.645-.021,5.286.114,7.927.216a8.726,8.726,0,0,0,2.2.12c.285-.059.525-.106.607-.417a.777.777,0,0,0-.238-.819,1.132,1.132,0,0,0-1.1-.205.879.879,0,0,1-.834-.093,2.068,2.068,0,0,0-1.584-.261,5.736,5.736,0,0,1-.8.07c-1.1-.029-2.2.021-3.3.083a12.122,12.122,0,0,0-2.722.438c-.457.135-.954.211-1.406.317-.429.1-.847.221-1.313.361A.46.46,0,0,0,1570.149,12.077Z" transform="translate(-1539.745 -8.963)"/>
    </g>
    <g id="Groupe_7" data-name="Groupe 7" transform="translate(0.001 21.173)">
      <path id="Tracé_11" data-name="Tracé 11" class="cls-4" d="M10.52,140.454a4.756,4.756,0,0,0-2.784-.768c-2.578-.017-5.157-.015-7.735-.02v10.617c2.6,0,5.2.006,7.793,0a4.7,4.7,0,0,0,2.781-.773,2.686,2.686,0,0,0,.433-4.2c-.193-.2-.232-.292-.019-.518A2.774,2.774,0,0,0,10.52,140.454Zm-1.1,7.625a2.876,2.876,0,0,1-1.406.348c-1.914.009-3.829-.023-5.743-.005-.409,0-.474-.152-.448-.49.048-.63-.264-1.451.127-1.839.363-.36,1.178-.081,1.794-.1.488-.014.976,0,1.464,0,.9,0,1.8,0,2.7,0a2.9,2.9,0,0,1,1.562.393A.915.915,0,0,1,9.418,148.079Zm.141-4.423a2.029,2.029,0,0,1-1.092.417c-2.105.139-4.213.053-6.32.054-.3,0-.332-.155-.328-.394.009-.583.019-1.167,0-1.75-.012-.321.1-.425.418-.42,1.016.016,2.033.006,3.049.006.922,0,1.844,0,2.767,0A2.513,2.513,0,0,1,9.544,142,.972.972,0,0,1,9.559,143.656Z" transform="translate(-0.001 -139.666)"/>
      <path id="Tracé_12" data-name="Tracé 12" class="cls-2" d="M1225.033,139.714q-4.009,0-8.017,0c-.269,0-.51-.039-.509.383q.021,4.912,0,9.823c0,.3.1.387.387.385,2.917-.014,5.833-.017,8.749-.023v-1.807c-2.2-.006-4.4-.026-6.6-.008-.489,0-.719-.084-.66-.633a8.346,8.346,0,0,0,0-1.464c-.027-.392.093-.507.493-.5,1.917.021,3.835-.006,5.752.022.464.007.6-.1.589-.58-.033-1.3-.009-1.3-1.334-1.3-1.673,0-3.346-.01-5.019.007-.359,0-.505-.084-.48-.465a10.084,10.084,0,0,0,0-1.409c-.031-.426.082-.571.543-.566,2.236.027,4.474.012,6.711.012v-1.92C1225.442,139.683,1225.237,139.714,1225.033,139.714Z" transform="translate(-1032.064 -139.667)"/>
      <path id="Tracé_13" data-name="Tracé 13" class="cls-2" d="M1132.58,147.072a3.6,3.6,0,0,0,2.2-4.215,3.761,3.761,0,0,0-3.651-2.894c-2.684-.176-5.375-.027-8.062-.079-.435-.008-.567.1-.563.552.022,2.877.011,5.754.011,8.631,0,1.448,0,1.437,1.426,1.42.339,0,.466-.084.452-.441-.026-.695.01-1.392-.014-2.087-.012-.343.088-.449.439-.444,1.41.02,2.821.014,4.231,0a.8.8,0,0,1,.641.266c.769.8,1.551,1.586,2.331,2.373.116.118.209.3.39.3.867.012,1.734.005,2.722.005l-3.128-3.162C1132.2,147.225,1132.393,147.151,1132.58,147.072Zm-6.34-1.422c-.489,0-.979-.013-1.467.005-.3.011-.392-.1-.388-.391.013-1.035.017-2.07,0-3.1-.006-.332.116-.408.423-.4,1,.016,1.995.006,2.992.006s2-.027,2.992.007c1.572.054,2.469,1.2,2.01,2.534a1.912,1.912,0,0,1-1.876,1.292C1129.363,145.663,1127.8,145.639,1126.24,145.65Z" transform="translate(-952.315 -139.842)"/>
      <path id="Tracé_14" data-name="Tracé 14" class="cls-4" d="M283.821,150.526c-.346-.316-.678-.647-1.041-.942-.334-.272-.365-.449-.071-.838a5.436,5.436,0,0,0,.642-5.847,4.748,4.748,0,0,0-4.662-2.771c-1.11-.009-2.22,0-3.33,0a5.291,5.291,0,0,0-2.192.447,5.352,5.352,0,0,0,1.379,10.025,21.643,21.643,0,0,0,5.121-.007c.516-.054,1.057-.5,1.545.081.025.03.108.015.164.015h2.356Zm-2.48-2.988c-.153.222-.312.39-.546.077-.1-.139-.265-.121-.415-.122h-2.391l1.086,1.194c-.1.216-.28.125-.406.128a22.112,22.112,0,0,1-3.769-.05,3.233,3.233,0,0,1-2.783-3.58,3.313,3.313,0,0,1,3.288-3.207c1.109-.014,2.22-.029,3.328,0a3.127,3.127,0,0,1,2.924,1.868A3.531,3.531,0,0,1,281.34,147.538Z" transform="translate(-229.259 -140.055)"/>
      <path id="Tracé_15" data-name="Tracé 15" class="cls-2" d="M660.076,150.564h1.508a5.151,5.151,0,0,0,5.437-5.346,4.855,4.855,0,0,0-4.625-5.184c-1.215-.1-2.443-.036-3.664-.058a5.046,5.046,0,0,0-5.375,4.905,5.4,5.4,0,0,0,3.517,5.416A10.506,10.506,0,0,0,660.076,150.564Zm-4.818-5.648a3.318,3.318,0,0,1,3.2-3.064c.583-.016,1.167,0,1.75,0,0,.013,0,.025,0,.038a14.072,14.072,0,0,1,2.14.018,3.319,3.319,0,0,1,2.831,3.47,3.2,3.2,0,0,1-2.954,3.275,16.7,16.7,0,0,1-4.276-.028A3.229,3.229,0,0,1,655.257,144.915Z" transform="translate(-554.287 -139.928)"/>
      <path id="Tracé_16" data-name="Tracé 16" class="cls-2" d="M752.431,139.911c-.481-.006-.551.172-.546.585.02,1.561.008,3.122.008,4.683v3.893c0,1.488,0,1.477,1.471,1.446.323-.007.417-.1.407-.416-.022-.7.013-1.392-.015-2.087-.015-.367.091-.476.465-.47,1.335.023,2.67.014,4.006.007a13.091,13.091,0,0,0,2.362-.1,3.755,3.755,0,0,0,3.115-3.138,3.67,3.67,0,0,0-2.345-4.06,4.789,4.789,0,0,0-1.819-.325C757.17,139.923,754.8,139.939,752.431,139.911Zm9.481,3.653a1.863,1.863,0,0,1-1.931,2.087c-1.953.059-3.909.022-5.864.037-.266,0-.361-.077-.357-.351.013-1.071.015-2.143,0-3.215,0-.295.122-.334.37-.331.977.01,1.955,0,2.933,0,.921,0,1.842-.006,2.763,0A1.922,1.922,0,0,1,761.911,143.564Z" transform="translate(-637.886 -139.874)"/>
      <path id="Tracé_17" data-name="Tracé 17" class="cls-2" d="M570.88,147.531c1.861.018,3.724.053,5.583-.019a3.765,3.765,0,0,0,3.85-3.576,3.644,3.644,0,0,0-3.654-3.962c-2.606-.139-5.224-.047-7.836-.069-.387,0-.352.228-.352.48q0,2.4,0,4.794v3.892c0,1.537,0,1.529,1.539,1.431.27-.017.356-.1.351-.365-.014-.7.024-1.393-.016-2.086C570.321,147.615,570.469,147.527,570.88,147.531Zm-.526-2.243c.007-1.035.014-2.07,0-3.1-.006-.32.092-.416.411-.41.978.019,1.956.007,2.935.007.9,0,1.806-.006,2.709,0a1.948,1.948,0,0,1,2.1,1.832,1.9,1.9,0,0,1-1.955,2.027c-1.955.055-3.912.019-5.868.033C570.381,145.676,570.353,145.524,570.354,145.288Z" transform="translate(-482.28 -139.86)"/>
      <path id="Tracé_18" data-name="Tracé 18" class="cls-4" d="M465.9,141.739c1.825.016,3.651.007,5.476.007,1.377,0,1.365,0,1.36-1.384,0-.355-.082-.5-.464-.5-2.671.012-5.343.021-8.014-.009-.587-.007-.729.2-.719.746.029,1.524.01,3.048.01,4.572h0c0,1.6.006,3.2,0,4.8,0,.369.109.5.51.5,2.465-.021,4.93-.01,7.395-.011,1.3,0,1.277,0,1.261-1.3-.005-.451-.128-.552-.561-.547-2.07.023-4.14,0-6.209.021-.433.005-.556-.122-.526-.54a9.393,9.393,0,0,0,0-1.466c-.038-.459.089-.608.575-.6,1.674.032,3.349.012,5.024.012,1.2,0,1.175,0,1.216-1.194.018-.547-.143-.706-.688-.7-1.862.03-3.726-.008-5.588.026-.472.009-.565-.145-.537-.561a10.258,10.258,0,0,0,0-1.41C465.393,141.816,465.544,141.736,465.9,141.739Z" transform="translate(-393.258 -139.826)"/>
      <path id="Tracé_19" data-name="Tracé 19" class="cls-2" d="M1002.615,140.847c-.807-1.292-1.959-1.29-2.817-.031-.032.047-.061.095-.09.143q-2.772,4.61-5.543,9.222c-.044.074-.123.147-.059.279.624,0,1.261-.016,1.9.007a.608.608,0,0,0,.627-.35c.441-.765.919-1.507,1.364-2.27a.584.584,0,0,1,.582-.33q2.567.02,5.133,0a.581.581,0,0,1,.581.331c.441.764.907,1.514,1.362,2.271.105.175.179.355.45.348.691-.019,1.382-.006,2.168-.006l-3.709-6.313C1003.913,143.045,1003.291,141.929,1002.615,140.847Zm-2.878,4.808c-.34,0-.334-.125-.185-.366q.71-1.152,1.4-2.314c.123-.2.225-.29.383-.023.515.87,1.04,1.734,1.621,2.7C1001.8,145.652,1000.77,145.647,999.737,145.655Z" transform="translate(-843.362 -139.843)"/>
      <path id="Tracé_20" data-name="Tracé 20" class="cls-4" d="M197.153,141.2c0-1.485,0-1.474-1.475-1.362-.31.023-.371.141-.368.413.01,1,0,2,0,2.993v3.873c-.229-.215-.378-.347-.519-.488q-3.07-3.079-6.138-6.159a1.944,1.944,0,0,0-.872-.6.768.768,0,0,0-1.053.688,4.74,4.74,0,0,0-.025.62q0,3.981,0,7.962c0,1.276,0,1.253,1.306,1.278.465.009.554-.146.55-.573-.02-2.2-.009-4.4-.009-6.755.514.518.922.931,1.331,1.342q2.791,2.8,5.585,5.594a1.145,1.145,0,0,0,1.257.434c.5-.2.425-.7.425-1.13Q197.155,145.263,197.153,141.2Z" transform="translate(-158.398 -139.772)"/>
      <path id="Tracé_21" data-name="Tracé 21" class="cls-4" d="M94.836,140.877c-.81-1.344-1.966-1.353-2.841-.057-.095.14-.177.289-.264.433q-.539.894-1.078,1.787L86.2,150.445c.74,0,1.375-.017,2.009.007a.615.615,0,0,0,.625-.362c.433-.748.907-1.474,1.336-2.225a.616.616,0,0,1,.619-.363q2.541.022,5.082,0a.666.666,0,0,1,.659.4c.431.75.888,1.485,1.337,2.224.084.139.132.319.351.319.721,0,1.441,0,2.247,0-.758-1.292-1.459-2.489-2.162-3.686C97.149,144.8,96.01,142.825,94.836,140.877Zm-3.291,4.738c.573-.938,1.1-1.8,1.621-2.661.15-.25.256-.215.388,0,.517.864,1.037,1.726,1.6,2.656Z" transform="translate(-73.132 -139.829)"/>
      <path id="Tracé_22" data-name="Tracé 22" class="cls-2" d="M851.483,146.343c.039-.976.007-1.955.007-2.933h.02v-2.2c0-1.325,0-1.309-1.314-1.322-.407,0-.549.084-.542.524.027,1.748.024,3.5.007,5.247-.018,1.853-.823,2.7-2.661,2.914a13.042,13.042,0,0,1-2.754-.03,2.492,2.492,0,0,1-2.58-2.839c-.006-1.467,0-2.934,0-4.4s0-1.445-1.439-1.415c-.358.008-.44.132-.438.463.013,1.824-.02,3.649.012,5.472.046,2.593,1.167,4.035,3.551,4.484a11.927,11.927,0,0,0,4.927-.071A3.9,3.9,0,0,0,851.483,146.343Z" transform="translate(-712.46 -139.848)"/>
      <path id="Tracé_23" data-name="Tracé 23" class="cls-4" d="M371.858,146.313a3.837,3.837,0,0,0,3.195,3.776,11.627,11.627,0,0,0,5.035.035,3.98,3.98,0,0,0,3.422-4.24c.011-.9,0-1.806,0-2.709q0-1.072,0-2.145c0-1.382,0-1.372-1.394-1.287-.347.021-.47.111-.465.494.024,1.768.014,3.536,0,5.3a2.487,2.487,0,0,1-2.236,2.828,10.206,10.206,0,0,1-3.536-.033,2.318,2.318,0,0,1-2.2-2.591c-.032-1.542-.017-3.085-.019-4.627,0-1.473,0-1.467-1.463-1.381-.3.017-.438.1-.43.428C371.825,142.214,371.7,144.265,371.858,146.313Z" transform="translate(-315.407 -139.7)"/>
      <path id="Tracé_24" data-name="Tracé 24" class="cls-5" d="M937.048,148.653c-2.086.019-4.173,0-6.259.018-.391,0-.507-.1-.5-.5.019-2.293.009-4.586.009-6.879,0-1.414,0-1.4-1.412-1.385-.387,0-.469.138-.465.493.016,1.6.007,3.2.007,4.793s.016,3.2-.011,4.793c-.007.433.125.53.54.526,2.425-.02,4.85-.01,7.274-.01,1.333,0,1.317,0,1.325-1.358C937.555,148.748,937.439,148.649,937.048,148.653Z" transform="translate(-787.65 -139.871)"/>
      <path id="Tracé_25" data-name="Tracé 25" class="cls-6" d="M1096.985,141.274c0-1.457,0-1.444-1.46-1.406-.359.01-.434.138-.431.466.014,1.6.006,3.2.006,4.794v3.948c0,1.412,0,1.395,1.4,1.4.41,0,.492-.135.49-.515C1096.978,147.065,1096.985,144.17,1096.985,141.274Z" transform="translate(-929.058 -139.829)"/>
    </g>
    <g id="Groupe_8" data-name="Groupe 8" transform="translate(88.936 37.508)">
      <path id="Tracé_26" data-name="Tracé 26" class="cls-4" d="M1064.7,247.466a1.305,1.305,0,0,0-1.514.583l-2.512,4.124c-.823-1.36-1.659-2.624-2.365-3.957a1.329,1.329,0,0,0-1.5-.761c-.332.029-.421.115-.23.411s.375.633.575.941c1.127,1.73,2.036,3.6,3.307,5.235h.414c1.031-1.407,1.868-2.938,2.81-4.4.373-.58.73-1.17,1.087-1.76C1064.857,247.734,1065.02,247.565,1064.7,247.466Z" transform="translate(-985.232 -247.406)"/>
      <path id="Tracé_27" data-name="Tracé 27" class="cls-4" d="M990.021,250.34c.155-1.578-.866-2.582-2.712-2.621-1.4-.03-2.8.015-4.2-.016-.487-.011-.56.186-.555.6q.027,2.652,0,5.3c0,.4.066.589.522.557.374-.027.632,0,.628-.531-.008-1.276.024-1.277,1.293-1.277a.4.4,0,0,0,.069,0,2.635,2.635,0,0,1,2.835,1.181c.577.841,1.387.627,2.342.557l-1.96-1.825C989.272,251.864,989.924,251.329,990.021,250.34Zm-2.033.762a22.893,22.893,0,0,1-4.045.124c-.168.006-.242-.1-.25-.262a2.026,2.026,0,0,1,0-.206c.033-.591-.264-1.426.108-1.717.545-.426,1.406-.082,1.838-.129.911,0,1.533-.04,2.148.012a1.109,1.109,0,0,1,.205,2.179Z" transform="translate(-922.516 -247.657)"/>
      <path id="Tracé_28" data-name="Tracé 28" class="cls-4" d="M1234.474,250.17c-.184-.006-.368,0-.551,0-.827,0-1.654,0-2.481,0-.441,0-.9-.1-.9-.625s.428-.639.882-.632c.207,0,.414,0,.62,0,1.195,0,2.39-.013,3.584.007.405.007.531-.158.5-.53-.022-.31.084-.666-.443-.661-1.539.016-3.08-.033-4.617.024a1.712,1.712,0,0,0-1.8,1.906,1.761,1.761,0,0,0,1.934,1.635c.919.016,1.838,0,2.757.006.951,0,1.5.335,1.486.88s-.575.86-1.517.864c-1.356.006-2.712.025-4.066-.008-.51-.012-.474.268-.484.606s.027.562.469.542c.757-.034,1.516-.009,2.274-.009v0c.8,0,1.61.03,2.412-.007a2,2,0,0,0-.06-3.991Z" transform="translate(-1131.825 -247.674)"/>
      <path id="Tracé_29" data-name="Tracé 29" class="cls-4" d="M1120.662,247.648a10.631,10.631,0,0,0-3.089-.02,2.953,2.953,0,0,0-2.7,3.05,3.181,3.181,0,0,0,2.589,3.271,8.943,8.943,0,0,0,1.512.013c0,.011,0,.023,0,.034.437,0,.874.022,1.309,0a3.077,3.077,0,0,0,2.841-2.866C1123.243,249.207,1122.347,247.92,1120.662,247.648Zm-.27,5.137a7.263,7.263,0,0,1-2.8-.016,1.914,1.914,0,0,1-1.516-2.2,1.963,1.963,0,0,1,1.838-1.81c.388-.024.779,0,1.168,0v0c.321,0,.642-.011.962,0a1.985,1.985,0,0,1,1.959,1.84A1.926,1.926,0,0,1,1120.392,252.785Z" transform="translate(-1034.777 -247.507)"/>
      <path id="Tracé_30" data-name="Tracé 30" class="cls-4" d="M872.57,247.62a10.938,10.938,0,0,0-2.953-.025,2.914,2.914,0,0,0-2.737,3,3.109,3.109,0,0,0,2.555,3.339,9.065,9.065,0,0,0,1.579.014c0,.015,0,.03,0,.045.367,0,.735.01,1.1,0a3.129,3.129,0,0,0,3.02-3.076A2.987,2.987,0,0,0,872.57,247.62Zm-.38,5.18a7.47,7.47,0,0,1-2.606-.039,2.044,2.044,0,0,1,.3-4.021c.366-.024.736,0,1.1,0v-.008c.3,0,.6-.005.9,0a1.976,1.976,0,0,1,2.063,1.724A1.923,1.923,0,0,1,872.19,252.8Z" transform="translate(-824.38 -247.492)"/>
      <path id="Tracé_31" data-name="Tracé 31" class="cls-4" d="M753.674,253.033c-1.1.031-2.209-.022-3.311.022-.6.024-.559-.334-.527-.7s-.226-.878.513-.856c1.011.031,2.024-.014,3.035.017.456.014.537-.178.527-.573s-.018-.65-.541-.628c-.987.042-1.979-.025-2.966.026-.623.033-.573-.319-.581-.727-.008-.428-.011-.742.594-.715,1.1.049,2.208,0,3.311.022.459.011.46-.242.453-.567s.054-.637-.465-.629c-1.54.025-3.082.018-4.622,0-.367,0-.474.129-.467.482.019.92.006,1.84.006,2.76,0,.9.014,1.794-.007,2.691-.009.367.065.531.484.524,1.517-.024,3.036-.027,4.553,0,.456.008.53-.173.523-.566C754.18,253.241,754.144,253.02,753.674,253.033Z" transform="translate(-724.056 -247.673)"/>
      <path id="Tracé_32" data-name="Tracé 32" class="cls-4" d="M820.041,247.739c-1.377-.036-2.756.006-4.134-.016-.437-.007-.55.168-.54.571.021.9.007,1.791.006,2.687s.014,1.792-.008,2.687c-.009.384.11.5.5.52.521.021.781-.105.689-.675-.033-.2.018-.416-.01-.619-.062-.451.153-.534.553-.525,1.033.023,2.067.031,3.1,0a2.318,2.318,0,1,0-.161-4.631Zm.524,3.409a23.08,23.08,0,0,1-3.765.094c-.172,0-.233-.112-.241-.266a2.054,2.054,0,0,1,0-.206c.03-.59-.257-1.4.106-1.719.482-.426,1.312-.058,1.776-.131.785,0,1.36-.036,1.929.01a1.037,1.037,0,0,1,1.044.991A1.023,1.023,0,0,1,820.564,251.147Z" transform="translate(-780.677 -247.675)"/>
      <path id="Tracé_33" data-name="Tracé 33" class="cls-4" d="M630.916,248.258c-.2.277-.368.582-.546.877q-1.484,2.472-2.965,4.945c.6-.008,1.329.495,1.617-.235a2.164,2.164,0,0,1,2.694-1.433,2.274,2.274,0,0,0,.688,0,1.35,1.35,0,0,1,1.568.848c.58,1.119.637,1.09,1.994.869-1.161-1.975-2.29-3.94-3.468-5.876A.887.887,0,0,0,630.916,248.258Zm-.236,3a14.928,14.928,0,0,1,.973-1.729,9.7,9.7,0,0,1,1.039,1.729Z" transform="translate(-621.216 -247.715)"/>
      <path id="Tracé_34" data-name="Tracé 34" class="cls-4" d="M1182.452,247.66c-.51,0-.6.2-.6.648a21.233,21.233,0,0,1-.066,3.3,1.385,1.385,0,0,1-1.3,1.288,6.454,6.454,0,0,1-1.847.006c-1.135-.106-1.576-.579-1.583-1.736-.006-1.01-.022-2.021.008-3.03.014-.455-.227-.473-.556-.458-.313.015-.671-.078-.653.447.043,1.214-.065,2.431.075,3.645a2.319,2.319,0,0,0,1.932,2.2,7.033,7.033,0,0,0,3.14,0,2.365,2.365,0,0,0,1.979-2.39c.025-.55,0-1.1,0-1.653h0c0-.551-.021-1.1.007-1.652C1183.019,247.864,1182.944,247.661,1182.452,247.66Z" transform="translate(-1086.512 -247.621)"/>
      <path id="Tracé_35" data-name="Tracé 35" class="cls-4" d="M934.391,247.692c-.436-.011-.545.149-.535.56q.038,1.517,0,3.036a1.523,1.523,0,0,1-1.492,1.65,6.249,6.249,0,0,1-1.645,0c-1.2-.108-1.654-.6-1.662-1.826-.006-.966-.024-1.933.008-2.9.016-.472-.213-.507-.586-.516-.4-.009-.574.083-.562.533.031,1.126-.007,2.254.015,3.381a2.34,2.34,0,0,0,1.843,2.363,6.709,6.709,0,0,0,3.008.074,2.391,2.391,0,0,0,2.205-2.685c0-.46,0-.92,0-1.38,0-.575-.032-1.152.01-1.724C935.038,247.757,934.8,247.7,934.391,247.692Z" transform="translate(-876.166 -247.648)"/>
      <path id="Tracé_36" data-name="Tracé 36" class="cls-4" d="M591.68,247.719q-2.308.032-4.617,0c-.424-.006-.488.179-.481.538.018.9.006,1.792.006,2.688,0,.919.021,1.839-.01,2.756-.014.428.174.5.532.474.317-.022.658.069.614-.464-.041-.5.024-1.013-.017-1.515-.043-.528.108-.737.677-.708.939.047,1.883,0,2.825.02.432.011.66-.043.667-.579.008-.568-.231-.631-.7-.617-.964.029-1.931-.03-2.893.022-.626.034-.568-.323-.576-.728-.008-.426-.018-.742.59-.714,1.123.051,2.251-.005,3.376.023.524.013.448-.31.459-.63S592.134,247.713,591.68,247.719Z" transform="translate(-586.578 -247.672)"/>
      <path id="Tracé_37" data-name="Tracé 37" class="cls-4" d="M708.837,247.7c-.848.036-1.7.01-2.549.01-.919,0-1.838.015-2.756-.006-.5-.011-.4.319-.4.6s-.075.617.417.588,1.013.025,1.515-.015.615.165.606.63c-.026,1.354.006,2.71-.017,4.065-.007.435.1.6.572.594.458-.008.642-.1.629-.605-.035-1.377,0-2.756-.02-4.133-.007-.415.1-.581.538-.549.48.035.968-.029,1.445.017.525.05.53-.237.536-.622S709.308,247.679,708.837,247.7Z" transform="translate(-685.453 -247.653)"/>
      <path id="Tracé_38" data-name="Tracé 38" class="cls-4" d="M689.532,250.925c0-.9-.023-1.793.01-2.688.017-.467-.2-.522-.581-.518s-.6.035-.589.511q.038,2.723,0,5.446c-.008.482.219.5.583.5s.609-.005.589-.5C689.505,252.765,689.532,251.844,689.532,250.925Z" transform="translate(-672.937 -247.671)"/>
    </g>
    <rect id="Rectangle_6" data-name="Rectangle 6" class="cls-4" width="1.784" height="46.903" transform="translate(202.88 8.218)"/>
  </g>
</svg>
