<svg xmlns="http://www.w3.org/2000/svg" viewBox="0 0 29.645 44.832">
    <defs>
        <style>
            .cls-1{fill:#fff}.cls-2{fill:#471301}.cls-3{fill:#f26403}.cls-4{fill:#7d7c7d}.cls-5{fill:#e67e04}
        </style>
    </defs>
    <g id="Groupe_2831" data-name="Groupe 2831" transform="translate(-933 -574.869)">
        <circle id="Ellipse_73" cx="8.884" cy="8.884" r="8.884" class="cls-1" data-name="Ellipse 73" transform="translate(938.362 580.862)"/>
        <g id="Groupe_2830" data-name="Groupe 2830" transform="translate(939.725 583.954)">
            <path id="Tracé_7" d="M1373.2 4.065c-.125.006-.22-.027-.317-.013-.024 0-.055 0-.065.023s.019.042.035.058a1.149 1.149 0 0 0 .752.317c.12.012.241.014.382.021-.095.058-.172.1-.248.152-.019.012-.049.025-.042.054s.042.022.062.023a3.073 3.073 0 0 0 .761-.02 3.3 3.3 0 0 1 .738-.081.775.775 0 0 1 .312.059.353.353 0 0 0-.077.177 1.628 1.628 0 0 1 .451-.11 7.363 7.363 0 0 1 1.083-.023.748.748 0 0 1 .531.3.12.12 0 0 1 0 .18 1.089 1.089 0 0 0-.144.223 1.375 1.375 0 0 0-.029 1.416 2.236 2.236 0 0 0 .778.767c.03.019.069.031.074.074a1.406 1.406 0 0 1 .019.527.8.8 0 0 1-.352.475c-.083.056-.062.13-.062.2s.062.064.1.077a1.631 1.631 0 0 1 .283.105.121.121 0 0 1 .078.153.271.271 0 0 0 .111.307.634.634 0 0 0 .159.089.891.891 0 0 1 .4.309 7.793 7.793 0 0 1 .65.945.124.124 0 0 0 .124.071.524.524 0 0 1 .25.046c.055.027.106.07.071.137a.963.963 0 0 0-.044.351c-.005.037 0 .055.048.056.235.009.471.022.713.033a1.268 1.268 0 0 0-.144-.29.5.5 0 0 0-.274-.256.162.162 0 0 1-.124-.159.357.357 0 0 0-.161-.257 1.333 1.333 0 0 1-.183-.153c-.27-.277-.5-.588-.762-.873a.2.2 0 0 1-.04-.082c-.016-.056 0-.1.064-.1a.375.375 0 0 1 .109 0 .777.777 0 0 1 .564.415.28.28 0 0 0 .242.163 1.059 1.059 0 0 1 .11.009.163.163 0 0 1 .153.184.837.837 0 0 0 .046.24.173.173 0 0 0 .185.155c.163.007.325.027.5.043a.745.745 0 0 0-.076-.183.706.706 0 0 0-.314-.348.174.174 0 0 1-.114-.139.355.355 0 0 0-.228-.288.135.135 0 0 1-.088-.1.257.257 0 0 0-.143-.171q-.179-.08-.36-.158l-.3-.129c-.047-.021-.057-.042-.011-.083.114-.1.225-.208.333-.317a1.293 1.293 0 0 0 .291-.449c.13-.329.216-.7.624-.844a.471.471 0 0 1-.295-.244 5.581 5.581 0 0 0 1.629.416 4.72 4.72 0 0 0 1.291-.039c.074-.013.1 0 .1.078a3.245 3.245 0 0 1-.1.651.286.286 0 0 1-.075.133.664.664 0 0 0-.208.379 1.178 1.178 0 0 1-.032.2 14.246 14.246 0 0 1-.5 1.417.865.865 0 0 0-.063.322c0 .124.037.166.157.183.153.022.208.089.2.242a.725.725 0 0 0 0 .192c.042.224.042.224.268.224h.407a1.631 1.631 0 0 0-.2-.387.242.242 0 0 0-.1-.089.522.522 0 0 1-.3-.607 4.79 4.79 0 0 1 .485-1.065.5.5 0 0 1 .183-.2.14.14 0 0 0 .07-.114.159.159 0 0 1 .077-.136.106.106 0 0 0 .048-.129.335.335 0 0 1 .05-.279 4.9 4.9 0 0 1 .364-.595l.163-.234-.1-.027a1.171 1.171 0 0 1-.7-.407.514.514 0 0 0-.432-.236.73.73 0 0 1-.117-.023.121.121 0 0 1-.1-.1l.542.07a.076.076 0 0 1 .062.047.975.975 0 0 0 .367.365 2.849 2.849 0 0 0 .949.325 2.91 2.91 0 0 1 .445.109c.056.021.081.047.064.116a.526.526 0 0 0 0 .256.306.306 0 0 1-.054.259 1.9 1.9 0 0 1-.449.457 1.023 1.023 0 0 1-.312.188.3.3 0 0 0-.185.2.821.821 0 0 0-.036.254c0 .08-.032.117-.117.113s-.184 0-.276 0c-.045 0-.057.016-.057.059v.626c0 .055.022.059.067.053a.611.611 0 0 0 .439-.4.921.921 0 0 1 .047-.138c.015-.036.045-.068.084-.059.213.046.306-.1.376-.25a2.327 2.327 0 0 1 .26-.43c.205-.264.442-.5.663-.752a.953.953 0 0 0 .193-.278c.019-.048.049-.1.02-.15a1.513 1.513 0 0 1-.086-.25.316.316 0 0 0-.211-.213.772.772 0 0 1-.156-.075c-.246-.143-.48-.306-.719-.461-.06-.039-.07-.067-.038-.135a1.916 1.916 0 0 0 .172-1.249 1.446 1.446 0 0 0-.206-.476c.047-.008.071.037.11.027l-.033-.126a3.08 3.08 0 0 0-.573-1.285c-.283-.343-.561-.689-.85-1.027l-.435-.51a2.492 2.492 0 0 0 .487.041.548.548 0 0 0 .409-.155.21.21 0 0 1 .251 0 .213.213 0 0 0 .248.058.467.467 0 0 1 .211-.043h.092c.074-.015.076-.084.083-.136s-.051-.035-.081-.039a.692.692 0 0 1-.191-.021c-.033-.014-.082-.029-.072-.071s.062-.035.095-.026a1 1 0 0 0 .264-.006c.034 0 .047-.019.045-.054 0-.1-.005-.208-.009-.313a.088.088 0 0 0-.074-.09c-.139-.037-.275-.08-.413-.12-.017 0-.043-.01-.053 0-.047.043-.088.017-.133 0-.077-.03-.155-.056-.233-.084l-.43-.161a.487.487 0 0 0 .216-.388c0-.045 0-.1-.05-.12s-.044.055-.077.074l-.013.006c-.008-.037-.013-.073-.023-.108a.378.378 0 0 0-.141-.248c-.07-.045-.09-.033-.094.047 0 .02.007.044-.021.059a.983.983 0 0 0-.434-.232l.082.123a.584.584 0 0 1 .093.208c.02.094-.031.155-.135.183s-.107-.052-.134-.111a.244.244 0 0 1-.007-.036 3.646 3.646 0 0 0-.071-.4h-.037a3.78 3.78 0 0 0-.294.442.076.076 0 0 1-.085.046 2.084 2.084 0 0 0-.34-.006.739.739 0 0 0-.521.217.439.439 0 0 1-.135.119c.029.034.081.018.106.064a2.947 2.947 0 0 0-.618.383.728.728 0 0 1 .227.03 1.9 1.9 0 0 0-.223.2c-.013.016-.033.034-.02.056s.033.01.051.01a.653.653 0 0 1 .278.032 5.194 5.194 0 0 0-.553.332 1.29 1.29 0 0 1 .167.075c.051.036.068.068 0 .107s-.125.077-.186.117a.928.928 0 0 0-.2.132c.081.032.167.034.229.1-.084.022-.171.029-.2.128a1.344 1.344 0 0 1 .32.025c-.035.039-.082.043-.1.089.083.04.186.038.248.121a.971.971 0 0 0-.282.123c.1.028.194.04.252.128-.1.042-.209.041-.289.135l.287.07c-.093.071-.046.092.023.116a.259.259 0 0 1 .161.1.616.616 0 0 0-.2.032c.067.118.2.122.3.186-.083.073-.19.064-.279.116a1.454 1.454 0 0 1 .446.269c-.063.013-.143-.017-.154.035s.074.056.117.081a1.807 1.807 0 0 1 .361.229c-.081.044-.171.019-.259.054a2.6 2.6 0 0 0 .406.185c-.014.032-.043.037-.067.048a2.493 2.493 0 0 1-.86.165 6.44 6.44 0 0 1-1.432-.135 2.327 2.327 0 0 0-1.039.038.5.5 0 0 1-.5-.106c-.126-.1-.224-.229-.351-.324a3.906 3.906 0 0 0-1.6-.766 15.449 15.449 0 0 0-.979-.156c-.021 0-.047-.013-.061.006s.005.045.016.066c.021.043.068.069.08.118a.1.1 0 0 1-.076 0 5.687 5.687 0 0 0-1.146-.147c-.092 0-.184 0-.275.011-.018 0-.048 0-.049.031s.021.026.038.035a.374.374 0 0 1 .149.112 7.377 7.377 0 0 0-1.012.052 2.545 2.545 0 0 1 .752.343zm9.651-2.957a1.978 1.978 0 0 1 .175-.1c.112-.052.185 0 .191.142-.1-.094-.186-.016-.273.012 0 .038.046.045.052.083-.088.021-.12-.056-.168-.1-.019-.015.011-.029.024-.037zm-4.123 7.519a.2.2 0 0 1 .038-.1.494.494 0 0 0 .107-.429.5.5 0 0 1 0-.072.172.172 0 0 1 .161.177.676.676 0 0 1-.045.251 1.191 1.191 0 0 0-.042.139.153.153 0 0 1-.112.121.075.075 0 0 1-.106-.087z" class="cls-2" data-name="Tracé 7" transform="translate(-1372.431 .003)"/>
            <path id="Tracé_8" d="M1445.721 68.805a8.52 8.52 0 0 1 .639-.009c.268 0 .536.025.806.026.389 0 .779-.014 1.167.016a6.107 6.107 0 0 0 .762.031 2.886 2.886 0 0 1 .668.032 2.736 2.736 0 0 0 .759.018.173.173 0 0 0 .166-.109.187.187 0 0 0-.043-.2.679.679 0 0 0-.454-.118.381.381 0 0 1-.373-.028.784.784 0 0 0-.409-.075c-.156.011-.312.033-.467.03-.38-.006-.759-.016-1.139.012a5.675 5.675 0 0 0-.678.044 2.253 2.253 0 0 0-.66.135.061.061 0 0 1-.062 0 .1.1 0 0 0-.089 0c-.078.032-.172-.011-.244.053-.008.008-.031 0-.045 0-.171-.047-.309.066-.475.084a.182.182 0 0 0 .171.058z" class="cls-3" data-name="Tracé 8" transform="translate(-1443.394 -66.375)"/>
            <path id="Tracé_9" d="M1498.994 36.578a4.525 4.525 0 0 1 .531-.01c.162 0 .325.01.487.008.233 0 .465-.015.7-.019.3 0 .592.042.89.03a2.2 2.2 0 0 1 .577.018 1.714 1.714 0 0 0 .575.013.164.164 0 0 0 .168-.21.318.318 0 0 0-.4-.21.263.263 0 0 1-.289-.021.51.51 0 0 0-.307-.072c-.125.013-.249.038-.374.038a8.248 8.248 0 0 0-.963.035 3.152 3.152 0 0 0-.528.056 1.441 1.441 0 0 0-.5.14.039.039 0 0 1-.026.007.4.4 0 0 0-.285.049.06.06 0 0 1-.044 0c-.144-.043-.243.07-.377.09a.163.163 0 0 0 .165.058z" class="cls-4" data-name="Tracé 9" transform="translate(-1495.097 -35.038)"/>
            <path id="Tracé_10" d="M1569.744 10.859c.133-.013.267 0 .4 0 .514 0 1.028.022 1.542.042a1.7 1.7 0 0 0 .428.023c.055-.012.1-.021.118-.081a.151.151 0 0 0-.046-.159.22.22 0 0 0-.214-.04.171.171 0 0 1-.162-.018.4.4 0 0 0-.308-.051 1.117 1.117 0 0 1-.155.014c-.214-.006-.428 0-.642.016a2.356 2.356 0 0 0-.529.085c-.089.026-.186.041-.273.062s-.165.043-.255.07a.089.089 0 0 0 .096.037z" class="cls-3" data-name="Tracé 10" transform="translate(-1563.832 -10.254)"/>
        </g>
        <path id="Tracé_479" d="M14.807 0A14.8 14.8 0 0 0 3.67 24.551l11.137 20.28 11.136-20.248A14.794 14.794 0 0 0 14.807 0zm0 23.254a8.447 8.447 0 1 1 8.447-8.447 8.446 8.446 0 0 1-8.447 8.447z" class="cls-5" data-name="Tracé 479" transform="translate(933 574.869)"/>
    </g>
</svg>
